<svg width="71" height="24" viewBox="0 0 71 24" fill="none" xmlns="http://www.w3.org/2000/svg">
<path d="M24.9262 7.95375C25.5732 7.95375 26.1785 7.53751 26.1785 6.78827C26.1785 6.03903 25.5732 5.6436 24.9262 5.6436C24.3209 5.6436 23.6948 6.03903 23.6948 6.78827C23.6948 7.53751 24.3209 7.95375 24.9262 7.95375ZM23.8409 9.74361V20.3787H26.0324V9.74361H23.8409Z" fill="white"/>
<path d="M37.6733 9.74361H35.3357L32.6016 17.8812H32.5599L29.5753 9.74361H27.2168L31.078 19.2964C31.4746 20.2954 31.1824 21.1279 30.7858 21.6066C30.3058 22.1893 29.617 22.2518 28.6987 22.1269H28.5108V23.7919C28.9283 23.8959 29.45 24 30.0762 24C32.1216 24 32.8103 22.6888 33.4156 21.0447L37.6733 9.74361Z" fill="white"/>
<path d="M44.8395 12.5325C44.8395 13.5523 43.8377 13.7604 42.1888 14.0726C39.5173 14.5929 37.785 15.3213 37.785 17.6523C37.785 19.4421 39.1208 20.6909 41.2914 20.6909C42.9402 20.6909 44.1507 20.0457 44.8186 19.1091H44.8604C45.0691 20.1497 45.6117 20.566 46.7805 20.566C47.1979 20.566 47.5527 20.5244 48.0537 20.337V19.2964C47.1979 19.3797 47.031 18.9842 47.031 18.235V13.1776C47.031 10.3472 45.2778 9.45224 42.9193 9.45224C39.7052 9.45224 38.3903 11.0548 38.2859 13.0944H40.4148C40.5191 11.7208 41.1661 11.1797 42.9193 11.1797C44.3803 11.1797 44.8395 11.7624 44.8395 12.5325ZM41.7714 18.9634C40.5818 18.9634 39.9974 18.4223 39.9974 17.4441C39.9974 16.3619 40.7905 15.8416 42.6063 15.4462C43.629 15.238 44.4847 14.9883 44.8395 14.7385V16.3411C44.8395 18.0685 43.5872 18.9634 41.7714 18.9634Z" fill="white"/>
<path d="M56.8282 5.49791V11.034H56.7865C56.2229 10.2223 55.1794 9.45224 53.5306 9.45224C50.7964 9.45224 48.7719 11.5751 48.7719 15.0715C48.7719 18.568 50.7964 20.6909 53.5306 20.6909C55.1794 20.6909 56.2229 19.8792 56.7865 19.1507H56.8282V20.3787H59.0197V5.49791H56.8282ZM53.9062 18.901C51.9861 18.901 50.9634 17.1528 50.9634 15.0715C50.9634 12.9903 51.9861 11.2421 53.9062 11.2421C55.7012 11.2421 56.8073 12.6989 56.8073 15.0715C56.8073 17.4233 55.7012 18.901 53.9062 18.901Z" fill="white"/>
<path d="M67.5655 12.5325C67.5655 13.5523 66.5637 13.7604 64.9148 14.0726C62.2433 14.5929 60.511 15.3213 60.511 17.6523C60.511 19.4421 61.8468 20.6909 64.0174 20.6909C65.6662 20.6909 66.8767 20.0457 67.5446 19.1091H67.5863C67.7951 20.1497 68.3377 20.566 69.5065 20.566C69.9239 20.566 70.2787 20.5244 70.7797 20.337V19.2964C69.9239 19.3797 69.757 18.9842 69.757 18.235V13.1776C69.757 10.3472 68.0038 9.45224 65.6453 9.45224C62.4312 9.45224 61.1163 11.0548 61.0119 13.0944H63.1408C63.2451 11.7208 63.8921 11.1797 65.6453 11.1797C67.1063 11.1797 67.5655 11.7624 67.5655 12.5325ZM64.4974 18.9634C63.3078 18.9634 62.7234 18.4223 62.7234 17.4441C62.7234 16.3619 63.5165 15.8416 65.3323 15.4462C66.3549 15.238 67.2107 14.9883 67.5655 14.7385V16.3411C67.5655 18.0685 66.3132 18.9634 64.4974 18.9634Z" fill="white"/>
<path d="M4.60644 21.5539C2.72328 20.0849 1.31804 18.008 0.592119 15.6211C-0.133801 13.2343 -0.143131 10.6598 0.565467 8.26685C1.27407 5.87387 2.66421 3.78518 4.53667 2.30014C6.40912 0.815098 8.66776 0.00995093 10.9889 9.16386e-05C13.31 -0.00976765 15.5744 0.776167 17.4575 2.24525C19.3407 3.71434 20.7459 5.79116 21.4718 8.17805C22.1978 10.5649 22.2071 13.1394 21.4985 15.5323C20.7899 17.9253 19.3997 20.014 17.5273 21.4991L16.0983 19.3872C17.5588 18.2288 18.6432 16.5997 19.1959 14.7331C19.7486 12.8666 19.7413 10.8586 19.1751 8.99679C18.6089 7.13501 17.5128 5.5151 16.0439 4.36921C14.575 3.22332 12.8088 2.61029 10.9983 2.61798C9.18789 2.62567 7.42615 3.25369 5.96564 4.41202C4.50512 5.57035 3.42081 7.19953 2.8681 9.06606C2.31539 10.9326 2.32267 12.9406 2.88889 14.8024C3.45511 16.6642 4.5512 18.2841 6.02006 19.43L4.60644 21.5539Z" fill="white"/>
<path d="M17.6509 11.1769C17.6509 12.0018 14.6875 12.6704 11.032 12.6704C7.37647 12.6704 4.41309 12.0018 4.41309 11.1769C4.41309 10.3521 7.37647 9.68348 11.032 9.68348C14.6875 9.68348 17.6509 10.3521 17.6509 11.1769Z" fill="white"/>
</svg>
